<svg width="1234" height="506" viewBox="0 0 1234 506" fill="none" xmlns="http://www.w3.org/2000/svg">
<g filter="url(#filter0_dddd_22_44)">
<path d="M139 83C153.8 83 166.733 86 177.8 92C189 97.8667 197.6 106.133 203.6 116.8C209.6 127.467 212.6 139.667 212.6 153.4C212.6 167 209.533 179.133 203.4 189.8C197.4 200.467 188.8 208.867 177.6 215C166.533 221 153.667 224 139 224H83.2V83H139ZM136 189.4C147.467 189.4 156.467 186.267 163 180C169.533 173.733 172.8 164.867 172.8 153.4C172.8 141.8 169.533 132.867 163 126.6C156.467 120.2 147.467 117 136 117H122.4V189.4H136ZM269.47 83V224H230.27V83H269.47ZM344.994 225.4C328.594 225.4 315.127 221.533 304.594 213.8C294.06 205.933 288.394 194.733 287.594 180.2H329.394C329.794 185.133 331.26 188.733 333.794 191C336.327 193.267 339.594 194.4 343.594 194.4C347.194 194.4 350.127 193.533 352.394 191.8C354.794 189.933 355.994 187.4 355.994 184.2C355.994 180.067 354.06 176.867 350.194 174.6C346.327 172.333 340.06 169.8 331.394 167C322.194 163.933 314.727 161 308.994 158.2C303.394 155.267 298.46 151.067 294.194 145.6C290.06 140 287.994 132.733 287.994 123.8C287.994 114.733 290.26 107 294.794 100.6C299.327 94.0667 305.594 89.1333 313.594 85.8C321.594 82.4667 330.66 80.8 340.794 80.8C357.194 80.8 370.26 84.6667 379.994 92.4C389.86 100 395.127 110.733 395.794 124.6H353.194C353.06 120.333 351.727 117.133 349.194 115C346.794 112.867 343.66 111.8 339.794 111.8C336.86 111.8 334.46 112.667 332.594 114.4C330.727 116.133 329.794 118.6 329.794 121.8C329.794 124.467 330.794 126.8 332.794 128.8C334.927 130.667 337.527 132.333 340.594 133.8C343.66 135.133 348.194 136.867 354.194 139C363.127 142.067 370.46 145.133 376.194 148.2C382.06 151.133 387.06 155.333 391.194 160.8C395.46 166.133 397.594 172.933 397.594 181.2C397.594 189.6 395.46 197.133 391.194 203.8C387.06 210.467 380.994 215.733 372.994 219.6C365.127 223.467 355.794 225.4 344.994 225.4ZM411.017 153.2C411.017 139.333 413.884 127 419.617 116.2C425.484 105.267 433.751 96.8 444.417 90.8C455.084 84.6667 467.351 81.6 481.217 81.6C498.817 81.6 513.617 86.3333 525.617 95.8C537.617 105.133 545.351 117.867 548.817 134H506.617C504.084 128.667 500.551 124.6 496.017 121.8C491.617 119 486.484 117.6 480.617 117.6C471.551 117.6 464.284 120.867 458.817 127.4C453.484 133.8 450.817 142.4 450.817 153.2C450.817 164.133 453.484 172.867 458.817 179.4C464.284 185.8 471.551 189 480.617 189C486.484 189 491.617 187.6 496.017 184.8C500.551 182 504.084 177.933 506.617 172.6H548.817C545.351 188.733 537.617 201.533 525.617 211C513.617 220.333 498.817 225 481.217 225C467.351 225 455.084 222 444.417 216C433.751 209.867 425.484 201.4 419.617 190.6C413.884 179.667 411.017 167.2 411.017 153.2ZM634.98 225.4C621.78 225.4 609.646 222.333 598.58 216.2C587.513 209.933 578.713 201.333 572.18 190.4C565.78 179.333 562.58 166.867 562.58 153C562.58 139.133 565.78 126.733 572.18 115.8C578.713 104.733 587.513 96.1333 598.58 90C609.646 83.8667 621.78 80.8 634.98 80.8C648.313 80.8 660.446 83.8667 671.38 90C682.446 96.1333 691.18 104.733 697.58 115.8C703.98 126.733 707.18 139.133 707.18 153C707.18 166.867 703.98 179.333 697.58 190.4C691.18 201.333 682.446 209.933 671.38 216.2C660.313 222.333 648.18 225.4 634.98 225.4ZM634.98 189C644.98 189 652.846 185.733 658.58 179.2C664.446 172.667 667.38 163.933 667.38 153C667.38 141.8 664.446 133 658.58 126.6C652.846 120.067 644.98 116.8 634.98 116.8C624.846 116.8 616.913 120.067 611.18 126.6C605.446 133 602.58 141.8 602.58 153C602.58 164.067 605.446 172.867 611.18 179.4C616.913 185.8 624.846 189 634.98 189ZM862.002 83L813.402 224H763.202L714.402 83H756.402L788.402 184.8L820.202 83H862.002ZM913.416 114.4V137.4H958.416V167.2H913.416V192.6H964.416V224H874.216V83H964.416V114.4H913.416ZM1055.19 224L1027.19 172H1022.99V224H983.786V83H1045.59C1056.92 83 1066.52 85 1074.39 89C1082.25 92.8667 1088.19 98.2667 1092.19 105.2C1096.19 112 1098.19 119.667 1098.19 128.2C1098.19 137.8 1095.52 146.267 1090.19 153.6C1084.99 160.8 1077.32 165.933 1067.19 169L1098.99 224H1055.19ZM1022.99 145.2H1042.39C1047.72 145.2 1051.72 143.933 1054.39 141.4C1057.05 138.867 1058.39 135.2 1058.39 130.4C1058.39 125.867 1056.99 122.333 1054.19 119.8C1051.52 117.133 1047.59 115.8 1042.39 115.8H1022.99V145.2ZM149.4 390.6V424H132.4C103.733 424 89.4 409.8 89.4 381.4V344.4H75.6V311.8H89.4V284.6H128.8V311.8H149.2V344.4H128.8V382C128.8 385.067 129.467 387.267 130.8 388.6C132.267 389.933 134.667 390.6 138 390.6H149.4ZM241.18 310.8C253.98 310.8 264.113 315.133 271.58 323.8C279.18 332.333 282.98 343.933 282.98 358.6V424H243.78V363.8C243.78 357.4 242.113 352.4 238.78 348.8C235.446 345.067 230.98 343.2 225.38 343.2C219.513 343.2 214.913 345.067 211.58 348.8C208.246 352.4 206.58 357.4 206.58 363.8V424H167.38V276H206.58V327.8C210.046 322.733 214.713 318.667 220.58 315.6C226.58 312.4 233.446 310.8 241.18 310.8ZM411.689 366.6C411.689 369.667 411.489 372.733 411.089 375.8H336.889C337.289 381.933 338.956 386.533 341.889 389.6C344.956 392.533 348.822 394 353.489 394C360.022 394 364.689 391.067 367.489 385.2H409.289C407.556 392.933 404.156 399.867 399.089 406C394.156 412 387.889 416.733 380.289 420.2C372.689 423.667 364.289 425.4 355.089 425.4C344.022 425.4 334.156 423.067 325.489 418.4C316.956 413.733 310.222 407.067 305.289 398.4C300.489 389.733 298.089 379.533 298.089 367.8C298.089 356.067 300.489 345.933 305.289 337.4C310.089 328.733 316.756 322.067 325.289 317.4C333.956 312.733 343.889 310.4 355.089 310.4C366.156 310.4 375.956 312.667 384.489 317.2C393.022 321.733 399.689 328.267 404.489 336.8C409.289 345.2 411.689 355.133 411.689 366.6ZM371.689 356.8C371.689 352 370.089 348.267 366.889 345.6C363.689 342.8 359.689 341.4 354.889 341.4C350.089 341.4 346.156 342.733 343.089 345.4C340.022 347.933 338.022 351.733 337.089 356.8H371.689ZM561.613 283V314.2H505.213V339H546.813V368.8H505.213V424H466.013V283H561.613ZM692.922 311.8V424H653.522V408C650.189 413.067 645.589 417.2 639.722 420.4C633.855 423.467 627.122 425 619.522 425C606.455 425 596.122 420.733 588.522 412.2C581.055 403.533 577.322 391.8 577.322 377V311.8H616.322V372C616.322 378.4 617.989 383.467 621.322 387.2C624.789 390.8 629.322 392.6 634.922 392.6C640.655 392.6 645.189 390.8 648.522 387.2C651.855 383.467 653.522 378.4 653.522 372V311.8H692.922ZM781.431 390.6V424H764.431C735.765 424 721.431 409.8 721.431 381.4V344.4H707.631V311.8H721.431V284.6H760.831V311.8H781.231V344.4H760.831V382C760.831 385.067 761.498 387.267 762.831 388.6C764.298 389.933 766.698 390.6 770.031 390.6H781.431ZM914.211 311.8V424H874.811V408C871.478 413.067 866.878 417.2 861.011 420.4C855.144 423.467 848.411 425 840.811 425C827.744 425 817.411 420.733 809.811 412.2C802.344 403.533 798.611 391.8 798.611 377V311.8H837.611V372C837.611 378.4 839.278 383.467 842.611 387.2C846.078 390.8 850.611 392.6 856.211 392.6C861.944 392.6 866.478 390.8 869.811 387.2C873.144 383.467 874.811 378.4 874.811 372V311.8H914.211ZM975.72 331.6C980.12 325.2 985.454 320.133 991.72 316.4C997.987 312.667 1004.72 310.8 1011.92 310.8V352.6H1000.92C992.387 352.6 986.054 354.267 981.92 357.6C977.787 360.933 975.72 366.733 975.72 375V424H936.52V311.8H975.72V331.6ZM1133.17 366.6C1133.17 369.667 1132.97 372.733 1132.57 375.8H1058.37C1058.77 381.933 1060.44 386.533 1063.37 389.6C1066.44 392.533 1070.31 394 1074.97 394C1081.51 394 1086.17 391.067 1088.97 385.2H1130.77C1129.04 392.933 1125.64 399.867 1120.57 406C1115.64 412 1109.37 416.733 1101.77 420.2C1094.17 423.667 1085.77 425.4 1076.57 425.4C1065.51 425.4 1055.64 423.067 1046.97 418.4C1038.44 413.733 1031.71 407.067 1026.77 398.4C1021.97 389.733 1019.57 379.533 1019.57 367.8C1019.57 356.067 1021.97 345.933 1026.77 337.4C1031.57 328.733 1038.24 322.067 1046.77 317.4C1055.44 312.733 1065.37 310.4 1076.57 310.4C1087.64 310.4 1097.44 312.667 1105.97 317.2C1114.51 321.733 1121.17 328.267 1125.97 336.8C1130.77 345.2 1133.17 355.133 1133.17 366.6ZM1093.17 356.8C1093.17 352 1091.57 348.267 1088.37 345.6C1085.17 342.8 1081.17 341.4 1076.37 341.4C1071.57 341.4 1067.64 342.733 1064.57 345.4C1061.51 347.933 1059.51 351.733 1058.57 356.8H1093.17Z" fill="#000D23" fill-opacity="0.01" shape-rendering="crispEdges"/>
</g>
<defs>
<filter id="filter0_dddd_22_44" x="-24.3999" y="0.799988" width="1257.57" height="504.6" filterUnits="userSpaceOnUse" color-interpolation-filters="sRGB">
<feFlood flood-opacity="0" result="BackgroundImageFix"/>
<feColorMatrix in="SourceAlpha" type="matrix" values="0 0 0 0 0 0 0 0 0 0 0 0 0 0 0 0 0 0 127 0" result="hardAlpha"/>
<feOffset dx="50"/>
<feGaussianBlur stdDeviation="25"/>
<feComposite in2="hardAlpha" operator="out"/>
<feColorMatrix type="matrix" values="0 0 0 0 0 0 0 0 0 0.0509804 0 0 0 0 0.137255 0 0 0 0.15 0"/>
<feBlend mode="normal" in2="BackgroundImageFix" result="effect1_dropShadow_22_44"/>
<feColorMatrix in="SourceAlpha" type="matrix" values="0 0 0 0 0 0 0 0 0 0 0 0 0 0 0 0 0 0 127 0" result="hardAlpha"/>
<feOffset dy="-30"/>
<feGaussianBlur stdDeviation="25"/>
<feComposite in2="hardAlpha" operator="out"/>
<feColorMatrix type="matrix" values="0 0 0 0 0 0 0 0 0 0.0509804 0 0 0 0 0.137255 0 0 0 0.15 0"/>
<feBlend mode="normal" in2="effect1_dropShadow_22_44" result="effect2_dropShadow_22_44"/>
<feColorMatrix in="SourceAlpha" type="matrix" values="0 0 0 0 0 0 0 0 0 0 0 0 0 0 0 0 0 0 127 0" result="hardAlpha"/>
<feOffset dy="30"/>
<feGaussianBlur stdDeviation="25"/>
<feComposite in2="hardAlpha" operator="out"/>
<feColorMatrix type="matrix" values="0 0 0 0 0 0 0 0 0 0.0509804 0 0 0 0 0.137255 0 0 0 0.15 0"/>
<feBlend mode="normal" in2="effect2_dropShadow_22_44" result="effect3_dropShadow_22_44"/>
<feColorMatrix in="SourceAlpha" type="matrix" values="0 0 0 0 0 0 0 0 0 0 0 0 0 0 0 0 0 0 127 0" result="hardAlpha"/>
<feOffset dx="-50"/>
<feGaussianBlur stdDeviation="25"/>
<feComposite in2="hardAlpha" operator="out"/>
<feColorMatrix type="matrix" values="0 0 0 0 0 0 0 0 0 0.0509804 0 0 0 0 0.137255 0 0 0 0.15 0"/>
<feBlend mode="normal" in2="effect3_dropShadow_22_44" result="effect4_dropShadow_22_44"/>
<feBlend mode="normal" in="SourceGraphic" in2="effect4_dropShadow_22_44" result="shape"/>
</filter>
</defs>
</svg>
