<svg width="41" height="24" viewBox="0 0 41 24" fill="none" xmlns="http://www.w3.org/2000/svg">
<path d="M4.32 0.599997V-0.400003H3.47583L3.33418 0.432198L4.32 0.599997ZM20.16 0.599997L21.086 0.977607L21.6478 -0.400003H20.16V0.599997ZM10.96 23.16V24.16H11.6322L11.886 23.5376L10.96 23.16ZM0.48 23.16L-0.505821 22.9922L-0.704595 24.16H0.48V23.16ZM24.24 0.599997V-0.400003H23.3958L23.2542 0.432198L24.24 0.599997ZM40.08 0.599997L41.006 0.977606L41.5678 -0.400003H40.08V0.599997ZM30.88 23.16V24.16H31.5522L31.806 23.5376L30.88 23.16ZM20.4 23.16L19.4142 22.9922L19.2154 24.16H20.4V23.16ZM4.32 1.6H20.16V-0.400003H4.32V1.6ZM19.234 0.222386L10.034 22.7824L11.886 23.5376L21.086 0.977607L19.234 0.222386ZM10.96 22.16H0.48V24.16H10.96V22.16ZM1.46582 23.3278L5.30582 0.767796L3.33418 0.432198L-0.505821 22.9922L1.46582 23.3278ZM24.24 1.6H40.08V-0.400003H24.24V1.6ZM39.154 0.222387L29.954 22.7824L31.806 23.5376L41.006 0.977606L39.154 0.222387ZM30.88 22.16H20.4V24.16H30.88V22.16ZM21.3858 23.3278L25.2258 0.767796L23.2542 0.432198L19.4142 22.9922L21.3858 23.3278Z" fill="#EDF4FF"/>
</svg>
