<svg width="41" height="24" viewBox="0 0 41 24" fill="none" xmlns="http://www.w3.org/2000/svg">
<path d="M16.28 23.16V24.16H17.1242L17.2658 23.3278L16.28 23.16ZM0.52 23.16L-0.405965 22.7824L-0.967756 24.16H0.52V23.16ZM9.72 0.599997V-0.400003H9.04785L8.79404 0.222387L9.72 0.599997ZM20.12 0.599997L21.1058 0.767796L21.3046 -0.400003H20.12V0.599997ZM36.2 23.16V24.16H37.0442L37.1858 23.3278L36.2 23.16ZM20.44 23.16L19.514 22.7824L18.9522 24.16H20.44V23.16ZM29.64 0.599997V-0.400003H28.9678L28.714 0.222387L29.64 0.599997ZM40.04 0.599997L41.0258 0.767796L41.2246 -0.400003H40.04V0.599997ZM16.28 22.16H0.52V24.16H16.28V22.16ZM1.44597 23.5376L10.646 0.977606L8.79404 0.222387L-0.405965 22.7824L1.44597 23.5376ZM9.72 1.6H20.12V-0.400003H9.72V1.6ZM19.1342 0.432197L15.2942 22.9922L17.2658 23.3278L21.1058 0.767796L19.1342 0.432197ZM36.2 22.16H20.44V24.16H36.2V22.16ZM21.366 23.5376L30.566 0.977606L28.714 0.222387L19.514 22.7824L21.366 23.5376ZM29.64 1.6H40.04V-0.400003H29.64V1.6ZM39.0542 0.432197L35.2142 22.9922L37.1858 23.3278L41.0258 0.767796L39.0542 0.432197Z" fill="#001E50"/>
</svg>
