<svg width="281" height="1840" viewBox="0 0 281 1840" fill="none" xmlns="http://www.w3.org/2000/svg">
<path d="M157.5 31C9.35957 255.521 280 373.213 280 475.626C280 578.039 172.261 629.245 172.261 702.609C172.261 775.972 280 839.488 280 922.698C280 1005.91 172.261 1053.18 172.261 1135.89C172.261 1218.61 280 1280.16 280 1360.91C280 1441.66 74 1561.3 74 1676.03C74 1768.1 138.676 1809.79 172.261 1839" stroke="black"/>
<path d="M95 1C-84.5 268 190 368.395 190 471.145C190 573.895 82 625.27 82 698.874C82 772.478 190 836.203 190 919.687C190 1003.17 82 1050.59 82 1133.58C82 1216.57 190 1278.32 190 1359.34C190 1440.35 1 1549.03 1 1664.13C1 1756.5 48.3333 1809.69 82 1839" stroke="black"/>
</svg>
