<svg width="50" height="50" viewBox="0 0 50 50" fill="none" xmlns="http://www.w3.org/2000/svg">
<path d="M25 47.0542C12.9458 47.0542 3.03542 37.0542 3.03542 25C3.03542 22.5 3.48125 20.0896 4.28542 17.7687L17.1437 42.7687C17.3208 43.125 17.5 43.3937 17.9458 43.3937C18.3937 43.3937 18.5708 43.125 18.75 42.7687L24.7312 29.4646C24.8208 29.2854 24.9104 29.1958 25 29.1958C25.1792 29.1958 25.1792 29.375 25.2687 29.4646L31.3396 42.7687C31.5187 43.125 31.6958 43.3937 32.1437 43.3937C32.5896 43.3937 32.7687 43.125 32.9458 42.7687L45.8042 17.7687C46.6062 20 47.0542 22.4104 47.0542 25C46.9646 37.0542 37.0542 47.0542 25 47.0542ZM25 19.2854C24.8208 19.2854 24.8208 19.1062 24.7312 19.0187L17.8562 4.19583C22.4735 2.53243 27.5265 2.53243 32.1437 4.19583L25.2687 19.0187C25.1792 19.1062 25.1792 19.2854 25 19.2854ZM17.7687 35.3563C17.5896 35.3563 17.5896 35.1792 17.5 35.0896L6.25 13.4792C8.21458 10.2667 11.0708 7.5875 14.375 5.7125L22.3208 22.8542C22.5 23.2125 22.6792 23.3021 22.9458 23.3021H27.0542C27.3208 23.3021 27.5 23.2125 27.6792 22.8542L35.5354 5.7125C38.8396 7.5875 41.6958 10.2667 43.6604 13.4792L32.5 35.0896C32.4104 35.2687 32.3208 35.3563 32.2312 35.3563C32.0542 35.3563 32.0542 35.1792 31.9646 35.0896L27.6792 25.625C27.5 25.2687 27.3208 25.1792 27.0542 25.1792H22.9458C22.6792 25.1792 22.5 25.2687 22.3208 25.625L18.0354 35.0896C17.9458 35.1792 17.9458 35.3563 17.7687 35.3563ZM25 50C38.8396 50 50 38.8396 50 25C50 11.1604 38.8396 0 25 0C11.1604 0 0 11.1604 0 25C0 38.8396 11.1604 50 25 50Z" fill="#EDF4FF"/>
</svg>
